<svg id="Layer_2" viewBox="0 0 512 512" xmlns="http://www.w3.org/2000/svg" data-name="Layer 2"><g id="Icon"><path id="_16" d="m362 0h-212c-82.84 0-150 67.16-150 150v212c0 82.84 67.16 150 150 150h212c82.84 0 150-67.16 150-150v-212c0-82.84-67.16-150-150-150zm-4.07 272.48-28.08-27.67 28.08-28.48 28.48 28.48zm42.32-110.68h-87.89c0 10.32.06 21.09.2 32.35s.2 21.1.2 29.51l-4.88 3.25h-83.01c-17.64 0-26.45 6.25-26.45 18.72 0 8.41 2.37 14.99 7.12 19.74 4.74 4.75 9.56 7.12 14.44 7.12 2.45 0 6.51-.54 12.21-1.63 5.7-1.08 12.07-2.24 19.12-3.46s13.84-2.37 20.35-3.45 11.8-1.63 15.87-1.63c7.59 0 15.53 3.12 23.8 9.36s15.33 14.38 21.16 24.41c5.83 10.04 8.75 20.62 8.75 31.74 0 7.06-2.44 14.72-7.32 22.99-4.88 8.28-12.75 15.33-23.6 21.16-10.86 5.83-25.1 8.75-42.73 8.75-26.31 0-51.27-8.81-74.87-26.45-23.6-17.63-43.27-42.99-59-76.09l15.46-8.95c7.32 14.38 15.93 27.74 25.83 40.08 9.9 12.35 21.63 22.25 35.2 29.71 13.56 7.46 29.43 11.19 47.61 11.19 15.19 0 26.78-2.37 34.79-7.12 8-4.75 13.49-10.44 16.48-17.09 2.98-6.64 4.48-12.82 4.48-18.51 0-4.61-1.36-8.34-4.07-11.19s-6.51-4.27-11.39-4.27c-5.15 0-12 .81-20.55 2.44s-16.89 3.26-25.02 4.88c-8.14 1.63-14.52 2.44-19.13 2.44-6.78 0-13.9-2.1-21.36-6.3-7.47-4.21-14.45-9.77-20.96-16.68-6.51-6.92-11.81-14.65-15.87-23.2-4.07-8.54-6.1-17.15-6.1-25.83 0-10.03 3.93-18.11 11.8-24.21 7.86-6.1 20.07-9.16 36.62-9.16h61.44v-34.59h-153.4l-13.83-26.45v-4.07h274.66l13.84 26.45v4.07z" data-name="16"/></g></svg>